<?xml version="1.0" encoding="UTF-8"?>
<svg id="Layer_2" data-name="Layer 2" xmlns="http://www.w3.org/2000/svg" xmlns:xlink="http://www.w3.org/1999/xlink" viewBox="0 0 44.65 41.63">
  <defs>
    <style>
      .cls-1 {
        fill: #fbb815;
      }

      .cls-2 {
        fill: #ea1c1c;
      }

      .cls-3 {
        fill: #ea1f25;
      }

      .cls-4 {
        fill: none;
      }

      .cls-5 {
        fill: #fcb503;
      }

      .cls-6 {
        fill: #231f20;
        opacity: .2;
      }

      .cls-7 {
        fill: #0066b3;
      }

      .cls-8 {
        fill: #0062b2;
      }

      .cls-9 {
        clip-path: url(#clippath);
      }
    </style>
    <clipPath id="clippath">
      <path class="cls-4" d="M22.89,4.22S8.55,15.68,3.68,36.33c0,0,19.85,7.02,37.75,0,0,0-5.48-21.55-18.53-32.11Z"/>
    </clipPath>
  </defs>
  <g id="Layer_1-2" data-name="Layer 1">
    <g id="simplify_logo" data-name="simplify logo">
      <g>
        <path class="cls-3" d="M30.27,7.95l-13.98,33.34c-2.98-.29-5.66-.71-7.97-1.16L24.06,1.19c2.3,2.09,4.36,4.38,6.2,6.76Z"/>
        <path class="cls-7" d="M24.06,1.19l-15.75,38.94c-5.12-1.01-8.32-2.15-8.32-2.15C5.52,14.45,22.73,0,22.73,0c.45.39.91.78,1.34,1.19Z"/>
        <path class="cls-5" d="M35.43,15.61l-10.72,26.02c-2.97.04-5.8-.1-8.42-.33L30.27,7.95c1.95,2.49,3.67,5.08,5.17,7.66Z"/>
        <path class="cls-7" d="M44.65,37.98c-6.74,2.58-13.63,3.54-19.93,3.65l10.72-26.02c6.68,11.4,9.21,22.37,9.21,22.37Z"/>
      </g>
      <g class="cls-9">
        <image width="7000" height="4667" transform="translate(-29.61 -6.37) rotate(90) scale(.01 -.02)" xlink:href="../../../../../../../Users/the_t/Downloads/beige-wooden-textured-flooring-background.jpg"/>
        <rect class="cls-6" x="-31.33" y="-6.92" width="107" height="87"/>
      </g>
      <g>
        <path class="cls-8" d="M8.25,25.26c0,3.33,1.17,6.39,3.14,8.82l3.31-8.19h0c0-2.07.81-3.94,2.15-5.32l3.78-9.34c-7,.96-12.38,6.87-12.38,14.03Z"/>
        <path class="cls-2" d="M22.63,11.09c-.68,0-1.34.04-2,.14l-3.78,9.34c1.43-1.5,3.47-2.44,5.74-2.44,1.07,0,2.07.2,3,.59l2.53-6.56c-1.69-.68-3.55-1.06-5.48-1.06Z"/>
        <path class="cls-1" d="M28.12,12.15l-2.53,6.56c1.19.47,2.21,1.22,3.02,2.16h4.67l1.41-3.36c-1.57-2.38-3.85-4.27-6.56-5.36Z"/>
        <path class="cls-8" d="M34.68,17.51l-1.41,3.36h3.06c-.39-1.2-.94-2.33-1.65-3.36Z"/>
        <path class="cls-2" d="M14.71,25.88l-3.31,8.19c1.66,2.07,3.92,3.67,6.51,4.55l2.09-5.43c-3.07-1.06-5.28-3.94-5.28-7.32Z"/>
        <path class="cls-1" d="M23.82,23.3l-2.38,6.15h8.14c-1.3,2.49-3.95,4.19-6.99,4.19-.91,0-1.78-.15-2.59-.44h-.01l-2.09,5.43c1.48.51,3.07.79,4.73.79,1.03,0,2.03-.11,3.01-.31l6.62-15.81h-8.44Z"/>
        <path class="cls-8" d="M36.89,23.3h-4.64l-6.62,15.81c5.11-1.06,9.22-4.8,10.74-9.66.42-1.32.65-2.73.65-4.19,0-.66-.04-1.32-.14-1.96Z"/>
        <polygon class="cls-2" points="23.82 23.3 21.44 29.45 20.53 29.45 20.53 23.3 23.82 23.3"/>
      </g>
    </g>
  </g>
</svg>